<svg xmlns="http://www.w3.org/2000/svg" xmlns:xlink="http://www.w3.org/1999/xlink" width="47" height="239" viewBox="0 0 47 239"><svg width="35" height="35" viewBox="-10 -10 35 35" id="01-cart" y="0"><circle fill="#a6a6a6" cx="4.5" cy="13.5" r="1.5"></circle><circle fill="#a6a6a6" cx="12.5" cy="13.5" r="1.5"></circle><path fill="#a6a6a6" d="M15 2H4.07l-.42-2H0v2h2.03l1.99 9H15V9H9.44L15 6.95z"></path></svg><svg width="47" height="43" viewBox="-10 -10 47 43" fill="#4d4d4d" id="02-checkbox-on" y="35"><path d="M7.29 7.49L4.46 10.3l7.78 7.79L26.17 4.17l-2.83-2.83-11.1 11.1z"></path><path d="M21 20c0 .54-.46 1-1 1H3c-.54 0-1-.46-1-1V3c0-.54.46-1 1-1h16.9L21.5.42A2.96 2.96 0 0 0 20 0H3a3 3 0 0 0-3 3v17a3 3 0 0 0 3 3h17a3 3 0 0 0 3-3v-9.83l-2 2V20z"></path></svg><svg width="43" height="43" viewBox="-10 -10 43 43" fill="#4d4d4d" id="03-checkbox-off" y="78"><path d="M20 2c.54 0 1 .46 1 1v17c0 .54-.46 1-1 1H3c-.54 0-1-.46-1-1V3c0-.54.46-1 1-1h17m0-2H3a3 3 0 0 0-3 3v17a3 3 0 0 0 3 3h17a3 3 0 0 0 3-3V3a3 3 0 0 0-3-3z"></path></svg><svg width="46" height="35" viewBox="-10 -10 46 35" id="04-social-1" y="121"><path fill="#FFF" d="M16.14 11.51c.95-.3 2.18 2.04 3.48 2.94.98.68 1.73.53 1.73.53l3.47-.05s1.82-.1.96-1.55c-.07-.12-.5-1.07-2.59-3.02-2.17-2.05-1.88-1.72.74-5.25 1.6-2.15 2.24-3.47 2.04-4.03-.2-.53-1.37-.4-1.37-.4l-3.9.04c-.38 0-.7.12-.85.52 0 0-.62 1.66-1.45 3.08-1.74 2.99-2.43 3.15-2.72 2.96-.66-.43-.5-1.74-.5-2.67 0-2.9.44-4.1-.84-4.41A6.6 6.6 0 0 0 12.5 0c-1.39-.03-2.57 0-3.24.32-.45.23-.79.72-.58.74.26.04.84.16 1.15.59.4.55.4 1.79.4 1.79s.22 3.41-.55 3.83c-.52.3-1.25-.3-2.8-3.01-.8-1.4-1.4-2.92-1.4-2.92s-.1-.29-.32-.45c-.25-.18-.6-.24-.6-.24L.85.68S.29.7.08.95c-.18.21-.01.66-.01.66s2.9 6.88 6.2 10.35c3.02 3.18 6.46 2.97 6.46 2.97h1.55s.47-.05.7-.31c.23-.24.22-.7.22-.7s-.03-2.1.94-2.41z"></path></svg><svg width="32" height="42" viewBox="-10 -10 32 42" id="05-social-2" y="156"><path fill="#FFF" d="M12 4V0H8a4 4 0 0 0-4 4v4H0v4h4v10h4V12h4V8H8V4h4z"></path></svg><svg width="41" height="41" viewBox="-10 -10 41 41" id="06-social-3" y="198"><path fill="#FFF" d="M18 0H3a3 3 0 0 0-3 3v15a3 3 0 0 0 3 3h15a3 3 0 0 0 3-3V3a3 3 0 0 0-3-3zm-7.5 7a3.5 3.5 0 1 1 0 7 3.5 3.5 0 0 1 0-7zM18 18H3V9h1.18A6.5 6.5 0 0 0 4 10.5a6.5 6.5 0 1 0 13 0 6.45 6.45 0 0 0-.18-1.5H18v9zm0-11h-4V3h4v4z"></path></svg></svg>